# xmcd
#
# Track frame offsets:
#	150
#	15197
#	30557
#	42887
#	56650
#	68977
#	82800
#	94482
#	104347
#	113960
#	127012
#	138355
#	157390
#	166590
#	176870
#	189992
#	202907
#	212977
#	226007
#	237715
#	250252
#	260960
#	273437
#	286360
#	298675
#	315552
#	330180
#
# Disc length: 4528 seconds
#
# Revision: 3
# Processed by: cddbd v1.5.2PL0 Copyright (c) Steve Scherf et al.
# Submitted via: EasyCDDAExtractor 15.2.5.1
#
DISCID=8c11ae1b
DTITLE=Tom T Hall - On A Storytellers Night
DYEAR=1990
DGENRE=Country
TTITLE0=Homecoming
TTITLE1=Salute To A Switchblade
TTITLE2=I Washed My Face In The Morning Dew
TTITLE3=Ballad Of Forty Dollars
TTITLE4=The Year That Clayton Delaney Died
TTITLE5=A Week In A County Jail
TTITLE6=Pamela Brown
TTITLE7=Country Is
TTITLE8=I Love
TTITLE9=I Like Beer
TTITLE10=Ravishing Ruby
TTITLE11=Old Dogs, Children And Watermelon Wine
TTITLE12=I Care
TTITLE13=That Lucky Old Sun
TTITLE14=A Bar With No Beer
TTITLE15=Red Sails In The Sunset
TTITLE16=Love Letters In The Sand
TTITLE17=And I Love You So
TTITLE18=Lovin' Arms
TTITLE19=It's All In The Game
TTITLE20=The Way We Were
TTITLE21=MacLeay Street In Sydney
TTITLE22=Faster Horses (The Cowboy And The Poet)
TTITLE23=Over The Rainbow
TTITLE24=Love's Been Good To Me
TTITLE25=I Know Who I'll Be Seeing In New Zealand
TTITLE26=Fox On The Run
EXTD=ID3G:   2
EXTT0=
EXTT1=
EXTT2=
EXTT3=
EXTT4=
EXTT5=
EXTT6=
EXTT7=
EXTT8=
EXTT9=
EXTT10=
EXTT11=
EXTT12=
EXTT13=
EXTT14=
EXTT15=
EXTT16=
EXTT17=
EXTT18=
EXTT19=
EXTT20=
EXTT21=
EXTT22=
EXTT23=
EXTT24=
EXTT25=
EXTT26=
PLAYORDER=
